<svg width="25" height="24" viewBox="0 0 25 24" xmlns="http://www.w3.org/2000/svg">
<path d="M10.2042 16.2945C10.5945 16.6853 10.594 17.3184 10.2032 17.7087C9.81245 18.0989 9.17928 18.0985 8.78902 17.7077L3.79241 12.7043C3.40237 12.3137 3.40255 11.681 3.79282 11.2906L8.78943 6.29297C9.17992 5.9024 9.81308 5.90234 10.2036 6.29282C10.5942 6.6833 10.5943 7.31647 10.2038 7.70703L6.911 11H13.5C17.8349 11 21.3645 14.4478 21.4962 18.7508L21.5 19C21.5 19.5523 21.0523 20 20.5 20C19.9477 20 19.5 19.5523 19.5 19C19.5 15.7616 16.9344 13.1224 13.7249 13.0041L13.5 13H6.914L10.2042 16.2945Z" />
</svg>
