<svg width="24" height="24" viewBox="0 0 24 24" xmlns="http://www.w3.org/2000/svg">
<path d="M17.9179 5.0003C17.6386 5.00689 17.3733 5.12379 17.1799 5.32544L11.9998 10.5056L6.81964 5.32544C6.72102 5.22407 6.60305 5.14351 6.47273 5.08854C6.34241 5.03358 6.20239 5.00533 6.06096 5.00546C5.85077 5.00572 5.64544 5.06863 5.47118 5.18615C5.29693 5.30368 5.16166 5.47048 5.08267 5.66526C5.00367 5.86003 4.98453 6.07393 5.02769 6.27963C5.07086 6.48534 5.17436 6.67351 5.32498 6.8201L10.5051 12.0002L5.32498 17.1804C5.22354 17.2778 5.14255 17.3944 5.08675 17.5235C5.03096 17.6526 5.00149 17.7915 5.00005 17.9321C4.99862 18.0728 5.02527 18.2123 5.07842 18.3425C5.13158 18.4727 5.21018 18.5909 5.30962 18.6904C5.40906 18.7898 5.52734 18.8684 5.65754 18.9216C5.78774 18.9747 5.92723 19.0014 6.06786 18.9999C6.20848 18.9985 6.3474 18.969 6.47649 18.9132C6.60558 18.8574 6.72224 18.7765 6.81964 18.675L11.9998 13.4949L17.1799 18.675C17.2773 18.7765 17.3939 18.8574 17.523 18.9132C17.6521 18.969 17.7911 18.9985 17.9317 18.9999C18.0723 19.0014 18.2118 18.9747 18.342 18.9216C18.4722 18.8684 18.5905 18.7898 18.6899 18.6904C18.7894 18.5909 18.868 18.4727 18.9211 18.3425C18.9743 18.2123 19.0009 18.0728 18.9995 17.9321C18.998 17.7915 18.9686 17.6526 18.9128 17.5235C18.857 17.3944 18.776 17.2778 18.6745 17.1804L13.4944 12.0002L18.6745 6.8201C18.8284 6.67261 18.934 6.48209 18.9776 6.27351C19.0212 6.06493 19.0008 5.84803 18.919 5.65127C18.8372 5.45451 18.6978 5.28706 18.5192 5.17089C18.3405 5.05472 18.131 4.99526 17.9179 5.0003Z" />
</svg>
