<svg width="24" height="24" viewBox="0 0 24 24" xmlns="http://www.w3.org/2000/svg">
<path d="M10.7353 4.49311C10.5406 4.49879 10.3556 4.58004 10.2197 4.71967L3.2197 11.7197C3.07911 11.8603 3.00012 12.0511 3.00012 12.2499C3.00012 12.4488 3.07911 12.6396 3.2197 12.7802L10.2197 19.7802C10.2888 19.8522 10.3716 19.9097 10.4632 19.9493C10.5548 19.9888 10.6534 20.0098 10.7531 20.0108C10.8529 20.0118 10.9519 19.9929 11.0443 19.9552C11.1367 19.9174 11.2206 19.8617 11.2911 19.7911C11.3617 19.7206 11.4175 19.6366 11.4552 19.5442C11.4929 19.4519 11.5118 19.3529 11.5108 19.2531C11.5098 19.1533 11.4889 19.0548 11.4493 18.9632C11.4097 18.8716 11.3522 18.7888 11.2803 18.7197L5.56052 12.9999H20.25C20.3494 13.0014 20.448 12.983 20.5403 12.9459C20.6325 12.9089 20.7164 12.8538 20.7872 12.7841C20.858 12.7143 20.9142 12.6311 20.9525 12.5394C20.9909 12.4477 21.0107 12.3493 21.0107 12.2499C21.0107 12.1506 20.9909 12.0521 20.9525 11.9605C20.9142 11.8688 20.858 11.7856 20.7872 11.7158C20.7164 11.646 20.6325 11.591 20.5403 11.554C20.448 11.5169 20.3494 11.4985 20.25 11.4999H5.56052L11.2803 5.78022C11.3885 5.67484 11.4623 5.53925 11.4922 5.3912C11.5221 5.24315 11.5065 5.08953 11.4476 4.95044C11.3888 4.81136 11.2893 4.69329 11.1622 4.61169C11.0351 4.53009 10.8863 4.48876 10.7353 4.49311Z" />
</svg>
