<svg width="24" height="24" viewBox="0 0 24 24" xmlns="http://www.w3.org/2000/svg">
<path d="M12.0001 7.0715C10.935 7.0715 10.0716 6.20805 10.0716 5.14293C10.0716 4.07781 10.935 3.21436 12.0001 3.21436C13.0653 3.21436 13.9287 4.07781 13.9287 5.14293C13.9287 6.20805 13.0653 7.0715 12.0001 7.0715ZM12.0001 13.9286C10.935 13.9286 10.0716 13.0652 10.0716 12.0001C10.0716 10.9349 10.935 10.0715 12.0001 10.0715C13.0653 10.0715 13.9287 10.9349 13.9287 12.0001C13.9287 13.0652 13.0653 13.9286 12.0001 13.9286ZM10.0716 18.8572C10.0716 19.9223 10.935 20.7858 12.0001 20.7858C13.0653 20.7858 13.9287 19.9223 13.9287 18.8572C13.9287 17.7921 13.0653 16.9286 12.0001 16.9286C10.935 16.9286 10.0716 17.7921 10.0716 18.8572Z" />
</svg>
