<svg width="24" height="24" viewBox="0 0 24 24" xmlns="http://www.w3.org/2000/svg">
<path d="M20.707 11.2931L13.707 4.29312C13.3165 3.90262 12.6835 3.90262 12.293 4.29312C11.9025 4.68362 11.9025 5.31662 12.293 5.70712L17.586 11.0001H4C3.448 11.0001 3 11.4481 3 12.0001C3 12.5521 3.448 13.0001 4 13.0001H17.586L12.293 18.2931C11.9025 18.6836 11.9025 19.3166 12.293 19.7071C12.4885 19.9026 12.744 20.0001 13 20.0001C13.256 20.0001 13.5115 19.9026 13.707 19.7071L20.707 12.7071C21.0975 12.3166 21.0975 11.6836 20.707 11.2931Z" />
</svg>
